<svg xmlns="http://www.w3.org/2000/svg" viewBox="0 0 600 600" role="img" aria-label="Run-flat tyre on alloy wheel">
  <defs>
    <radialGradient id="tyreBody" cx="50%" cy="45%" r="55%">
      <stop offset="0%" stop-color="#3a3a3a"/>
      <stop offset="55%" stop-color="#1a1a1a"/>
      <stop offset="100%" stop-color="#050505"/>
    </radialGradient>
    <radialGradient id="sidewall" cx="50%" cy="50%" r="60%">
      <stop offset="0%" stop-color="#2b2b2b"/>
      <stop offset="100%" stop-color="#0c0c0c"/>
    </radialGradient>
    <radialGradient id="alloy" cx="50%" cy="40%" r="60%">
      <stop offset="0%" stop-color="#f1f3f5"/>
      <stop offset="55%" stop-color="#9aa0a6"/>
      <stop offset="100%" stop-color="#3a3f44"/>
    </radialGradient>
    <radialGradient id="hub" cx="50%" cy="40%" r="60%">
      <stop offset="0%" stop-color="#d8dbe0"/>
      <stop offset="100%" stop-color="#2c3035"/>
    </radialGradient>
    <linearGradient id="redRing" x1="0%" y1="0%" x2="0%" y2="100%">
      <stop offset="0%" stop-color="#ff8a8a"/>
      <stop offset="50%" stop-color="#c4282a"/>
      <stop offset="100%" stop-color="#5a0d0e"/>
    </linearGradient>
    <radialGradient id="floorShadow" cx="50%" cy="50%" r="50%">
      <stop offset="0%" stop-color="#000" stop-opacity="0.55"/>
      <stop offset="100%" stop-color="#000" stop-opacity="0"/>
    </radialGradient>
  </defs>

  <ellipse cx="300" cy="560" rx="240" ry="22" fill="url(#floorShadow)"/>
  <circle cx="300" cy="300" r="285" fill="url(#tyreBody)"/>

  <circle cx="300" cy="300" r="278" fill="none" stroke="#000" stroke-width="2"/>
  <circle cx="300" cy="300" r="262" fill="none" stroke="#000" stroke-width="3"/>
  <circle cx="300" cy="300" r="244" fill="none" stroke="#000" stroke-width="3"/>
  <circle cx="300" cy="300" r="228" fill="none" stroke="#000" stroke-width="2"/>
  <circle cx="300" cy="300" r="253" fill="none" stroke="#000" stroke-width="22"
          stroke-dasharray="16 6" opacity="0.85"/>
  <circle cx="300" cy="300" r="236" fill="none" stroke="#0a0a0a" stroke-width="14"
          stroke-dasharray="12 6" transform="rotate(6 300 300)"/>

  <!-- reinforced sidewall -->
  <circle cx="300" cy="300" r="222" fill="none" stroke="#1c1c1c" stroke-width="6"/>
  <circle cx="300" cy="300" r="218" fill="url(#sidewall)"/>
  <circle cx="300" cy="300" r="218" fill="none" stroke="#2a2a2a" stroke-width="2"/>

  <g fill="#cfcfcf" font-family="Inter, Arial, sans-serif" font-weight="700" opacity="0.6">
    <path id="sw" d="M 110 300 a 190 190 0 1 1 380 0" fill="none"/>
    <text font-size="20" letter-spacing="6">
      <textPath href="#sw" startOffset="6%">TYREREPAIR UK · RUN-FLAT REINFORCED</textPath>
    </text>
  </g>

  <circle cx="300" cy="300" r="190" fill="#0a0a0a"/>
  <circle cx="300" cy="300" r="190" fill="none" stroke="#1c1c1c" stroke-width="2"/>
  <circle cx="300" cy="300" r="180" fill="url(#redRing)"/>
  <circle cx="300" cy="300" r="172" fill="url(#alloy)"/>

  <g transform="translate(300 300)" fill="url(#alloy)" stroke="#2c3035" stroke-width="2" stroke-linejoin="round">
    <g><polygon points="-14,-30 14,-30 50,-160 -50,-160"/></g>
    <g transform="rotate(60)"><polygon points="-14,-30 14,-30 50,-160 -50,-160"/></g>
    <g transform="rotate(120)"><polygon points="-14,-30 14,-30 50,-160 -50,-160"/></g>
    <g transform="rotate(180)"><polygon points="-14,-30 14,-30 50,-160 -50,-160"/></g>
    <g transform="rotate(240)"><polygon points="-14,-30 14,-30 50,-160 -50,-160"/></g>
    <g transform="rotate(300)"><polygon points="-14,-30 14,-30 50,-160 -50,-160"/></g>
  </g>
  <g transform="translate(300 300)" fill="#ffffff" opacity="0.2">
    <g><polygon points="-3,-40 3,-40 10,-150 -10,-150"/></g>
    <g transform="rotate(60)"><polygon points="-3,-40 3,-40 10,-150 -10,-150"/></g>
    <g transform="rotate(120)"><polygon points="-3,-40 3,-40 10,-150 -10,-150"/></g>
    <g transform="rotate(180)"><polygon points="-3,-40 3,-40 10,-150 -10,-150"/></g>
    <g transform="rotate(240)"><polygon points="-3,-40 3,-40 10,-150 -10,-150"/></g>
    <g transform="rotate(300)"><polygon points="-3,-40 3,-40 10,-150 -10,-150"/></g>
  </g>

  <circle cx="300" cy="300" r="58" fill="url(#hub)" stroke="#1c1c1c" stroke-width="2"/>
  <circle cx="300" cy="300" r="46" fill="#111" stroke="#3a3f44" stroke-width="1"/>
  <g fill="#d8dbe0" stroke="#1c1c1c" stroke-width="1">
    <circle cx="300" cy="252" r="6"/>
    <circle cx="342" cy="278" r="6"/>
    <circle cx="342" cy="322" r="6"/>
    <circle cx="300" cy="348" r="6"/>
    <circle cx="258" cy="322" r="6"/>
    <circle cx="258" cy="278" r="6"/>
  </g>
  <circle cx="300" cy="300" r="14" fill="#1a1a1a" stroke="#c4282a" stroke-width="1.5"/>
  <circle cx="300" cy="300" r="5" fill="#c4282a"/>
  <path d="M 90 240 A 220 220 0 0 1 510 240" stroke="#ffffff" stroke-width="6" fill="none" opacity="0.06"/>
</svg>
