<svg xmlns="http://www.w3.org/2000/svg" viewBox="0 0 600 600" role="img" aria-label="Winter tyre on alloy wheel">
  <defs>
    <radialGradient id="tyreBody" cx="50%" cy="45%" r="55%">
      <stop offset="0%" stop-color="#3a3a3a"/>
      <stop offset="55%" stop-color="#1a1a1a"/>
      <stop offset="100%" stop-color="#050505"/>
    </radialGradient>
    <radialGradient id="sidewall" cx="50%" cy="50%" r="60%">
      <stop offset="0%" stop-color="#262626"/>
      <stop offset="100%" stop-color="#0c0c0c"/>
    </radialGradient>
    <radialGradient id="alloy" cx="50%" cy="40%" r="60%">
      <stop offset="0%" stop-color="#eef2f6"/>
      <stop offset="55%" stop-color="#8a96a6"/>
      <stop offset="100%" stop-color="#2c333d"/>
    </radialGradient>
    <radialGradient id="hub" cx="50%" cy="40%" r="60%">
      <stop offset="0%" stop-color="#dbe2ea"/>
      <stop offset="100%" stop-color="#222a33"/>
    </radialGradient>
    <linearGradient id="iceRing" x1="0%" y1="0%" x2="0%" y2="100%">
      <stop offset="0%" stop-color="#cfe7ff"/>
      <stop offset="50%" stop-color="#7aa9d6"/>
      <stop offset="100%" stop-color="#1d3a55"/>
    </linearGradient>
    <radialGradient id="floorShadow" cx="50%" cy="50%" r="50%">
      <stop offset="0%" stop-color="#000" stop-opacity="0.55"/>
      <stop offset="100%" stop-color="#000" stop-opacity="0"/>
    </radialGradient>
  </defs>

  <ellipse cx="300" cy="560" rx="240" ry="22" fill="url(#floorShadow)"/>
  <circle cx="300" cy="300" r="285" fill="url(#tyreBody)"/>

  <!-- finer winter sipe pattern (more cuts) -->
  <circle cx="300" cy="300" r="278" fill="none" stroke="#000" stroke-width="2"/>
  <circle cx="300" cy="300" r="262" fill="none" stroke="#000" stroke-width="3"/>
  <circle cx="300" cy="300" r="244" fill="none" stroke="#000" stroke-width="3"/>
  <circle cx="300" cy="300" r="228" fill="none" stroke="#000" stroke-width="2"/>
  <circle cx="300" cy="300" r="253" fill="none" stroke="#000" stroke-width="22"
          stroke-dasharray="6 4" opacity="0.9"/>
  <circle cx="300" cy="300" r="236" fill="none" stroke="#0a0a0a" stroke-width="14"
          stroke-dasharray="5 3" transform="rotate(4 300 300)"/>

  <circle cx="300" cy="300" r="218" fill="url(#sidewall)"/>
  <circle cx="300" cy="300" r="218" fill="none" stroke="#2a2a2a" stroke-width="2"/>

  <g fill="#cfcfcf" font-family="Inter, Arial, sans-serif" font-weight="700" opacity="0.55">
    <path id="sw" d="M 110 300 a 190 190 0 1 1 380 0" fill="none"/>
    <text font-size="20" letter-spacing="6">
      <textPath href="#sw" startOffset="6%">TYREREPAIR UK · WINTER 3PMSF GRIP</textPath>
    </text>
  </g>

  <circle cx="300" cy="300" r="190" fill="#0a0a0a"/>
  <circle cx="300" cy="300" r="190" fill="none" stroke="#1c1c1c" stroke-width="2"/>
  <circle cx="300" cy="300" r="180" fill="url(#iceRing)"/>
  <circle cx="300" cy="300" r="172" fill="url(#alloy)"/>

  <g transform="translate(300 300)" fill="url(#alloy)" stroke="#222a33" stroke-width="2" stroke-linejoin="round">
    <g><polygon points="-18,-30 18,-30 60,-160 -60,-160"/></g>
    <g transform="rotate(72)"><polygon points="-18,-30 18,-30 60,-160 -60,-160"/></g>
    <g transform="rotate(144)"><polygon points="-18,-30 18,-30 60,-160 -60,-160"/></g>
    <g transform="rotate(216)"><polygon points="-18,-30 18,-30 60,-160 -60,-160"/></g>
    <g transform="rotate(288)"><polygon points="-18,-30 18,-30 60,-160 -60,-160"/></g>
  </g>
  <g transform="translate(300 300)" fill="#ffffff" opacity="0.18">
    <g><polygon points="-4,-40 4,-40 14,-150 -14,-150"/></g>
    <g transform="rotate(72)"><polygon points="-4,-40 4,-40 14,-150 -14,-150"/></g>
    <g transform="rotate(144)"><polygon points="-4,-40 4,-40 14,-150 -14,-150"/></g>
    <g transform="rotate(216)"><polygon points="-4,-40 4,-40 14,-150 -14,-150"/></g>
    <g transform="rotate(288)"><polygon points="-4,-40 4,-40 14,-150 -14,-150"/></g>
  </g>

  <circle cx="300" cy="300" r="58" fill="url(#hub)" stroke="#1c1c1c" stroke-width="2"/>
  <circle cx="300" cy="300" r="46" fill="#111" stroke="#3a3f44" stroke-width="1"/>
  <g fill="#dbe2ea" stroke="#1c1c1c" stroke-width="1">
    <circle cx="300" cy="262" r="6"/>
    <circle cx="336" cy="289" r="6"/>
    <circle cx="322" cy="333" r="6"/>
    <circle cx="278" cy="333" r="6"/>
    <circle cx="264" cy="289" r="6"/>
  </g>

  <!-- snowflake center -->
  <g transform="translate(300 300)" stroke="#cfe7ff" stroke-width="2" stroke-linecap="round" fill="none">
    <line x1="-12" y1="0" x2="12" y2="0"/>
    <line x1="0" y1="-12" x2="0" y2="12"/>
    <line x1="-9" y1="-9" x2="9" y2="9"/>
    <line x1="-9" y1="9" x2="9" y2="-9"/>
  </g>

  <path d="M 90 240 A 220 220 0 0 1 510 240" stroke="#ffffff" stroke-width="6" fill="none" opacity="0.06"/>
</svg>
